<?xml version="1.0" encoding="utf-8"?><svg xmlns="http://www.w3.org/2000/svg" xmlns:xlink="http://www.w3.org/1999/xlink" width="1370" height="695" preserveAspectRatio="xMidYMid" viewBox="0 0 1370 695" style="z-index:1;margin-right:-2px;display:block;background-repeat-y:initial;background-repeat-x:initial;animation-play-state:paused" ><g transform="" style="animation-play-state:paused" ><linearGradient id="lg-0.6852213984146203" x1="0" x2="1" y1="0" y2="0" style="animation-play-state:paused" ><stop stop-color="#93dbe9" offset="0" style="animation-play-state:paused" ></stop>

  
<stop stop-color="#689cc5" offset="1" style="animation-play-state:paused" ></stop></linearGradient>
<path fill="url(#lg-0.6852213984146203)" opacity="0.4" d="M 0 0 L 0 595.515 Q 171.25 607.381 342.5 591.506 T 685 457.455 T 1027.5 443.589 T 1370 289.45 L 1370 0 Z" style="opacity:0.4;animation-play-state:paused" ></path>
<path fill="url(#lg-0.6852213984146203)" opacity="0.4" d="M 0 0 L 0 616.439 Q 171.25 593.235 342.5 573.58 T 685 477.929 T 1027.5 341.031 T 1370 261.701 L 1370 0 Z" style="opacity:0.4;animation-play-state:paused" ></path>
<path fill="url(#lg-0.6852213984146203)" opacity="0.4" d="M 0 0 L 0 660.712 Q 171.25 615.455 342.5 570.006 T 685 458.396 T 1027.5 401.974 T 1370 286.616 L 1370 0 Z" style="opacity:0.4;animation-play-state:paused" ></path>
<path fill="url(#lg-0.6852213984146203)" opacity="0.4" d="M 0 0 L 0 592.265 Q 171.25 610.052 342.5 591.29 T 685 477.494 T 1027.5 343.662 T 1370 302.595 L 1370 0 Z" style="opacity:0.4;animation-play-state:paused" ></path>
<path fill="url(#lg-0.6852213984146203)" opacity="0.4" d="M 0 0 L 0 652.191 Q 171.25 620.085 342.5 597.936 T 685 474.995 T 1027.5 374.702 T 1370 300.431 L 1370 0 Z" style="opacity:0.4;animation-play-state:paused" ></path></g></svg>